<svg width="22" height="18" viewBox="0 0 22 18" fill="none" xmlns="http://www.w3.org/2000/svg">
<path fill-rule="evenodd" clip-rule="evenodd" d="M11.2104 2C7.34441 2 4.21041 5.13401 4.21041 9C4.21041 10.9921 5.04155 12.7894 6.37887 14.0652C8.11802 13.6067 10.1588 12.7615 12.2363 11.5621C14.6808 10.1507 16.6676 8.54257 17.9456 7.08528C17.113 4.14991 14.4117 2 11.2104 2ZM18.1751 9.70762C16.8351 10.952 15.1467 12.1911 13.2363 13.2941C11.645 14.2128 10.052 14.9493 8.55798 15.4803C9.37577 15.8154 10.2711 16 11.2104 16C14.8375 16 17.8203 13.2413 18.1751 9.70762ZM5.85919 16.237C7.35482 17.3444 9.20717 18 11.2104 18C16.181 18 20.2104 13.9706 20.2104 9C20.2104 8.52457 20.1735 8.05718 20.1021 7.60067C20.6323 6.89095 21.0415 6.17327 21.2694 5.47688C21.5364 4.66081 21.5869 3.75778 21.1285 2.96374C20.6636 2.15843 19.8403 1.75072 18.9864 1.57775C18.1969 1.41783 17.2764 1.43272 16.2968 1.57409C14.85 0.581081 13.0983 0 11.2104 0C6.23984 0 2.21041 4.02944 2.21041 9C2.21041 9.10351 2.21216 9.20661 2.21563 9.30927C1.39816 10.207 0.756491 11.1175 0.37964 11.988C-0.0299039 12.934 -0.200325 14.0218 0.343893 14.9644C0.87228 15.8796 1.85728 16.2798 2.84677 16.4102C3.72758 16.5263 4.75763 16.4534 5.85919 16.237ZM4.05323 14.4572C3.47304 13.6973 3.01088 12.842 2.6945 11.9189C2.48984 12.2275 2.33004 12.5169 2.21504 12.7825C1.91776 13.4693 1.98985 13.8152 2.07594 13.9644C2.1595 14.1091 2.40889 14.3352 3.1081 14.4274C3.3824 14.4635 3.69857 14.4743 4.05323 14.4572ZM18.3319 3.49653C18.4226 3.50769 18.5084 3.52154 18.5893 3.53793C19.1245 3.64635 19.3226 3.83582 19.3965 3.96374C19.4694 4.09002 19.5336 4.35032 19.3685 4.85499C19.3481 4.91737 19.3247 4.98171 19.2982 5.04795C19.0284 4.49682 18.704 3.97732 18.3319 3.49653Z" fill="white"/>
</svg>
