<svg width="1254" height="361" viewBox="0 0 1254 361" fill="none" xmlns="http://www.w3.org/2000/svg">
<path d="M174.801 15.9347C184.478 13.5153 190.93 12.3056 194.156 12.3056C196.978 12.3056 199.398 13.5153 201.414 15.9347C204.236 18.7573 206.857 20.1686 209.277 20.1686C212.503 20.1686 214.922 22.3864 216.535 26.8219C218.148 31.2575 219.358 39.9269 220.164 52.8303C222.18 83.4759 236.898 150.815 264.318 254.849C275.608 298.398 281.253 327.229 281.253 341.342C281.253 348.6 279.842 355.052 277.02 360.697C275.003 364.729 273.995 367.149 273.995 367.955C273.995 373.6 269.963 382.27 261.898 393.964C258.269 399.206 254.439 401.827 250.406 401.827C247.18 401.827 242.14 399.609 235.285 395.173C228.027 390.334 218.954 381.262 208.067 367.955C197.583 354.649 175.002 324.003 140.324 276.019C103.63 226.421 85.0817 201.622 84.6785 201.622C84.2752 201.622 84.4768 205.655 85.2833 213.719C86.0898 221.381 87.0978 231.462 88.3075 243.962C91.1301 271.381 92.9447 302.632 93.7511 337.713C94.1544 346.987 94.356 357.673 94.356 369.77C94.356 384.286 92.7431 394.972 89.5172 401.827C85.8881 409.891 83.4688 413.923 82.2591 413.923C80.2429 413.923 77.0171 409.085 72.5815 399.407C68.146 390.133 64.5169 380.052 61.6943 369.165C57.662 355.052 48.7909 314.325 35.0811 246.986C21.7745 179.646 13.7098 140.13 10.8872 128.436C4.03231 97.3873 0.604846 79.4435 0.604846 74.6048C0.604846 68.1531 2.621 63.3143 6.65331 60.0885C11.0888 56.8626 19.1535 54.04 30.8472 51.6206C41.7344 49.6045 47.7828 48.5964 48.9925 48.5964C51.0087 48.5964 53.4281 49.6045 56.2507 51.6206C59.0733 54.4432 61.8959 55.8546 64.7185 55.8546C69.9605 55.8546 91.1301 81.2581 128.227 132.065C154.437 167.549 167.744 185.493 168.147 185.896C169.76 187.509 167.542 175.614 161.494 150.211C148.994 94.5647 142.744 59.282 142.744 44.3625C142.744 39.9269 144.357 34.6849 147.582 28.6365C150.808 22.588 153.631 19.5638 156.05 19.5638C157.26 19.5638 163.51 18.3541 174.801 15.9347Z" fill="white"/>
<path d="M331.605 300.476C314.669 263.378 305.193 244.83 303.177 244.83C302.774 244.83 301.161 265.193 298.338 305.919C295.919 346.646 294.709 369.025 294.709 373.057C294.709 374.267 301.564 369.428 315.274 358.541C329.387 347.654 338.258 340.395 341.887 336.766C343.5 334.347 344.306 332.734 344.306 331.928C344.306 329.508 340.073 319.024 331.605 300.476ZM272.33 138.982C281.201 136.966 288.257 135.958 293.499 135.958C308.419 135.958 321.121 141.401 331.605 152.288C345.315 166.805 373.137 218.015 415.073 305.919C421.928 321.242 425.356 329.307 425.356 330.113C425.356 331.726 430.598 345.436 441.082 371.243C451.566 396.646 458.219 412.171 461.042 417.816C464.268 424.267 469.106 432.735 475.558 443.219C480.8 452.09 483.421 459.147 483.421 464.389C483.421 468.824 483.219 472.454 482.816 475.276C482.01 488.18 478.784 500.68 473.139 512.777C467.493 525.277 462.05 531.527 456.808 531.527C453.582 531.527 448.743 528.704 442.292 523.059C435.84 517.414 430.195 510.962 425.356 503.704C418.904 494.43 410.84 480.72 401.162 462.574C391.484 444.429 384.63 430.114 380.597 419.63L373.944 402.09L355.799 411.767C339.266 419.832 325.355 425.88 314.064 429.913C297.935 436.768 289.669 440.397 289.265 440.8C287.653 442.413 285.838 452.897 283.822 472.252C280.193 502.494 275.757 520.841 270.515 527.293C269.306 528.906 268.297 529.914 267.491 530.317C267.088 530.72 266.483 530.72 265.676 530.317C265.273 529.914 264.265 529.107 262.652 527.898C259.83 525.075 257.209 520.841 254.789 515.196C250.354 502.293 247.329 433.34 245.717 308.339C245.313 286.564 245.112 260.153 245.112 229.104C245.112 201.281 245.918 181.523 247.531 169.829C249.144 158.135 251.362 150.675 254.184 147.45C257.41 144.224 263.459 141.401 272.33 138.982Z" fill="white"/>
<path d="M559.643 57.1818C562.063 56.7785 573.151 56.5769 592.91 56.5769C605.41 56.9801 613.676 57.585 617.708 58.3914C621.741 59.1979 626.983 61.4157 633.434 65.0448C642.306 69.8835 648.354 75.3271 651.58 81.3756C654.806 87.0208 656.419 94.8838 656.419 104.965C656.419 124.32 650.169 144.481 637.668 165.449C625.168 186.014 610.047 201.74 592.305 212.627C574.16 223.514 561.256 228.958 553.595 228.958C550.772 228.958 549.361 227.95 549.361 225.934C549.361 223.111 551.982 218.877 557.224 213.232C569.321 199.925 580.41 184.603 590.49 167.264C600.571 149.925 605.612 137.425 605.612 129.763C605.612 126.134 604.2 124.32 601.378 124.32C600.974 124.32 597.144 124.723 589.886 125.529C566.095 128.352 540.087 137.425 511.86 152.747C483.634 168.07 459.844 186.216 440.489 207.184C431.214 216.861 426.577 222.708 426.577 224.724C426.577 225.531 427.384 227.547 428.996 230.773C435.045 241.257 449.763 249.523 473.15 255.571C496.941 261.62 535.248 267.063 588.071 271.902C650.169 277.951 690.693 282.789 709.645 286.418C720.532 288.435 732.428 292.467 745.331 298.515C758.638 304.161 766.702 308.999 769.525 313.032C772.347 317.467 773.759 322.709 773.759 328.758C773.759 344.887 768.114 363.637 756.823 385.008C748.758 400.734 730.815 413.839 702.992 424.323C676.379 434.001 644.12 442.267 606.216 449.122C568.313 455.574 536.054 458.8 509.441 458.8C502.989 458.8 495.731 458.396 487.667 457.59C475.973 456.38 466.295 452.751 458.634 446.703C451.376 440.654 444.924 431.985 439.279 420.694C433.634 409.404 430.811 399.726 430.811 391.662C430.811 388.033 431.416 385.412 432.626 383.799C437.464 376.54 463.876 372.71 511.86 372.307C545.329 371.5 571.135 369.686 589.281 366.863C603.797 364.444 611.055 362.629 611.055 361.419C611.055 360.21 593.918 357.79 559.643 354.161C490.288 347.709 442.706 336.822 416.9 321.499C402.786 313.032 389.883 301.136 378.189 285.814C366.899 270.491 359.238 254.563 355.205 238.031C353.592 231.579 352.786 226.337 352.786 222.305C352.786 217.869 353.592 212.426 355.205 205.974C362.463 175.732 383.431 147.304 418.109 120.691C460.045 88.4321 507.223 67.2625 559.643 57.1818Z" fill="white"/>
<path d="M895.269 119.195C906.156 116.776 913.616 115.566 917.648 115.566C921.277 115.566 924.1 116.776 926.116 119.195C928.535 121.615 931.358 122.824 934.584 122.824C938.213 122.824 941.036 125.244 943.052 130.082C945.068 134.921 948.294 147.22 952.729 166.978C976.117 269.802 997.891 352.464 1018.05 414.965C1024.1 433.514 1027.13 446.215 1027.13 453.07C1027.13 453.877 1026.92 455.086 1026.52 456.699C1026.52 457.909 1026.52 458.917 1026.52 459.724C1025.71 469.401 1024.5 475.248 1022.89 477.264C1021.28 481.296 1018.05 488.151 1013.21 497.829C1007.97 508.716 1003.13 514.16 998.698 514.16C995.875 514.16 991.641 512.345 985.996 508.716C979.947 504.684 972.891 495.611 964.826 481.498C957.165 467.385 950.713 451.659 945.471 434.32C937.406 410.126 924.301 363.15 906.156 293.391L903.737 284.318L898.293 293.391C893.051 301.859 884.18 311.536 871.68 322.424C859.18 332.908 846.68 341.375 834.179 347.827L809.986 360.529L810.59 373.231C810.59 380.086 813.413 395.207 819.058 418.594C823.897 439.159 826.316 454.28 826.316 463.958C826.316 473.635 823.494 484.724 817.849 497.224C812.203 510.127 807.768 516.781 804.542 517.184H802.123C792.445 517.184 782.364 507.506 771.88 488.151C763.816 472.022 756.154 449.844 748.896 421.618C741.638 393.392 738.009 371.618 738.009 356.295C738.009 347.021 734.985 329.48 728.936 303.673C706.355 206.898 695.065 155.083 695.065 148.228C695.065 143.389 698.492 140.97 705.347 140.97C710.589 140.97 714.621 142.583 717.444 145.808C723.089 152.26 736.396 187.14 757.364 250.447L769.461 287.947L785.792 278.27C814.824 262.141 834.986 246.213 846.276 230.487C857.567 214.358 865.027 190.567 868.656 159.115C870.672 139.76 872.89 128.873 875.309 126.453C878.132 123.631 884.785 121.211 895.269 119.195Z" fill="white"/>
<path d="M1137.36 86.932C1137.36 85.7223 1134.14 85.1175 1127.69 85.1175C1115.19 85.1175 1104.7 86.5288 1096.23 89.3514C1080.91 94.1902 1064.98 102.456 1048.45 114.15C1031.92 125.441 1018.81 137.537 1009.14 150.441C999.861 163.747 995.224 173.627 995.224 180.078C995.224 182.094 995.628 183.304 996.434 183.707C996.837 184.111 997.24 184.312 997.644 184.312C999.66 184.312 1005.91 182.699 1016.39 179.473C1038.97 171.812 1060.55 160.925 1081.11 146.812C1102.08 132.699 1117.2 118.586 1126.48 104.473C1133.73 94.3918 1137.36 88.545 1137.36 86.932ZM1098.65 15.5602C1104.7 14.3505 1110.95 13.7456 1117.4 13.7456C1133.13 13.7456 1147.44 16.7699 1160.35 22.8184C1173.65 28.4636 1182.12 35.9234 1185.75 45.1977C1187.36 48.8267 1188.17 54.2703 1188.17 61.5285C1188.17 79.6739 1183.53 99.2306 1174.26 120.199C1171.84 125.037 1164.98 133.102 1153.69 144.392C1123.85 174.231 1080.71 193.385 1024.26 201.853L1001.88 205.482L1010.35 216.369C1015.59 223.627 1021.43 228.869 1027.89 232.095C1035.95 236.531 1048.05 238.748 1064.18 238.748C1071.03 238.748 1077.28 238.144 1082.93 236.934C1106.72 230.885 1131.92 217.982 1158.53 198.224C1172.65 187.74 1185.75 180.885 1197.85 177.659C1204.7 175.643 1210.35 174.635 1214.78 174.635C1218.41 174.635 1222.24 175.643 1226.28 177.659C1233.13 180.885 1236.96 183.707 1237.77 186.127C1238.98 189.756 1239.58 193.587 1239.58 197.619C1239.58 210.119 1234.74 225.24 1225.07 242.982C1220.63 251.45 1215.99 258.103 1211.15 262.942C1206.72 267.378 1198.45 273.628 1186.36 281.692C1144.82 309.112 1102.08 322.822 1058.13 322.822C1046.84 322.822 1036.35 321.612 1026.68 319.193C994.015 310.725 967.603 288.346 947.441 252.055C933.328 226.248 926.272 202.458 926.272 180.683C926.272 149.231 937.966 119.19 961.353 90.5611C993.208 51.4477 1038.97 26.4474 1098.65 15.5602Z" fill="white"/>
<path d="M1194.63 21.5021H1203.76V44.3871H1209.53V21.5021H1218.67V17.0488H1194.63V21.5021Z" fill="white"/>
<path d="M1245.02 17.0488L1237.72 37.535L1230.12 17.0488H1221.13V44.3871H1226.9V24.2435L1234.65 44.3871H1240.42L1248.09 24.2435V44.3871H1253.86V17.0488H1245.02Z" fill="white"/>
</svg>
