<svg width="121" height="73" viewBox="0 0 121 73" fill="none" xmlns="http://www.w3.org/2000/svg">
<path d="M16.8686 16.8322C17.8025 16.5988 18.4251 16.482 18.7364 16.482C19.0088 16.482 19.2422 16.5988 19.4368 16.8322C19.7092 17.1046 19.9621 17.2408 20.1956 17.2408C20.5069 17.2408 20.7404 17.4548 20.896 17.8829C21.0517 18.3109 21.1684 19.1475 21.2462 20.3927C21.4408 23.3501 22.8611 29.8485 25.5072 39.8879C26.5967 44.0905 27.1415 46.8727 27.1415 48.2346C27.1415 48.9351 27.0053 49.5577 26.7329 50.1024C26.5383 50.4916 26.4411 50.725 26.4411 50.8029C26.4411 51.3476 26.0519 52.1843 25.2737 53.3127C24.9235 53.8186 24.5538 54.0715 24.1647 54.0715C23.8534 54.0715 23.367 53.8575 22.7055 53.4295C22.005 52.9625 21.1295 52.087 20.0789 50.8029C19.0671 49.5188 16.888 46.5614 13.5416 41.9308C10.0005 37.1446 8.21054 34.7515 8.17163 34.7515C8.13272 34.7515 8.15217 35.1406 8.23 35.9188C8.30782 36.6582 8.40511 37.631 8.52184 38.8373C8.79423 41.4833 8.96934 44.499 9.04716 47.8844C9.08607 48.7794 9.10553 49.8106 9.10553 50.978C9.10553 52.3788 8.94988 53.41 8.63858 54.0715C8.28837 54.8498 8.05489 55.2389 7.93815 55.2389C7.74359 55.2389 7.43229 54.7719 7.00425 53.838C6.57622 52.9431 6.226 51.9702 5.95362 50.9196C5.56449 49.5577 4.70842 45.6275 3.38539 39.1291C2.10128 32.6307 1.32303 28.8173 1.05064 27.6888C0.389125 24.6926 0.0583688 22.961 0.0583688 22.494C0.0583688 21.8714 0.252931 21.4045 0.642057 21.0932C1.07009 20.7819 1.84834 20.5095 2.97681 20.276C4.02745 20.0814 4.61113 19.9841 4.72787 19.9841C4.92243 19.9841 5.15591 20.0814 5.4283 20.276C5.70068 20.5484 5.97307 20.6846 6.24546 20.6846C6.75132 20.6846 8.79423 23.1361 12.3742 28.039C14.9035 31.4633 16.1876 33.195 16.2265 33.2339C16.3822 33.3895 16.1682 32.2416 15.5845 29.7901C14.3782 24.4202 13.775 21.0153 13.775 19.5756C13.775 19.1475 13.9307 18.6417 14.242 18.058C14.5533 17.4743 14.8257 17.1824 15.0591 17.1824C15.1759 17.1824 15.779 17.0657 16.8686 16.8322Z" fill="white"/>
<path d="M32.0003 44.2908C30.366 40.7109 29.4515 38.9209 29.257 38.9209C29.2181 38.9209 29.0624 40.886 28.79 44.8161C28.5566 48.7463 28.4398 50.9059 28.4398 51.2951C28.4398 51.4118 29.1013 50.9448 30.4244 49.8942C31.7863 48.8436 32.6424 48.1431 32.9926 47.7929C33.1482 47.5595 33.2261 47.4038 33.2261 47.326C33.2261 47.0925 32.8175 46.0808 32.0003 44.2908ZM26.2802 28.7063C27.1363 28.5118 27.8172 28.4145 28.3231 28.4145C29.7628 28.4145 30.9886 28.9398 32.0003 29.9905C33.3233 31.3913 36.0083 36.3332 40.0552 44.8161C40.7167 46.2948 41.0475 47.0731 41.0475 47.1509C41.0475 47.3065 41.5533 48.6296 42.5651 51.12C43.5768 53.5714 44.2189 55.0696 44.4912 55.6143C44.8025 56.237 45.2695 57.0541 45.8921 58.0658C46.398 58.9219 46.6509 59.6029 46.6509 60.1087C46.6509 60.5368 46.6314 60.887 46.5925 61.1594C46.5147 62.4046 46.2034 63.6109 45.6586 64.7782C45.1138 65.9845 44.5885 66.5877 44.0827 66.5877C43.7714 66.5877 43.3044 66.3153 42.6818 65.7705C42.0592 65.2257 41.5144 64.6031 41.0475 63.9027C40.4249 63.0077 39.6466 61.6847 38.7127 59.9336C37.7788 58.1826 37.1173 56.8012 36.7282 55.7895L36.0861 54.0968L34.3351 55.0307C32.7397 55.8089 31.3972 56.3926 30.3076 56.7817C28.7511 57.4432 27.9534 57.7935 27.9145 57.8324C27.7589 57.988 27.5837 58.9997 27.3892 60.8675C27.039 63.786 26.6109 65.5565 26.1051 66.1791C25.9883 66.3347 25.8911 66.432 25.8132 66.4709C25.7743 66.5099 25.7159 66.5099 25.6381 66.4709C25.5992 66.432 25.5019 66.3542 25.3463 66.2375C25.0739 65.9651 24.821 65.5565 24.5875 65.0117C24.1594 63.7665 23.8676 57.1125 23.712 45.0496C23.673 42.9483 23.6536 40.3996 23.6536 37.4033C23.6536 34.7183 23.7314 32.8116 23.8871 31.6831C24.0427 30.5547 24.2567 29.8348 24.5291 29.5235C24.8404 29.2122 25.4241 28.9398 26.2802 28.7063Z" fill="white"/>
<path d="M54.0066 20.8126C54.2401 20.7737 55.3102 20.7542 57.2169 20.7542C58.4232 20.7931 59.2209 20.8515 59.61 20.9293C59.9991 21.0071 60.505 21.2212 61.1276 21.5714C61.9837 22.0383 62.5674 22.5636 62.8787 23.1473C63.19 23.6921 63.3456 24.4509 63.3456 25.4237C63.3456 27.2915 62.7425 29.2371 61.5362 31.2606C60.3299 33.2451 58.8707 34.7627 57.1585 35.8133C55.4074 36.864 54.1622 37.3893 53.4229 37.3893C53.1505 37.3893 53.0143 37.292 53.0143 37.0975C53.0143 36.8251 53.2673 36.4165 53.7731 35.8717C54.9405 34.5876 56.0106 33.1089 56.9834 31.4357C57.9562 29.7624 58.4426 28.5562 58.4426 27.8168C58.4426 27.4666 58.3064 27.2915 58.034 27.2915C57.9951 27.2915 57.6255 27.3304 56.925 27.4082C54.6292 27.6806 52.1193 28.5562 49.3955 30.0348C46.6716 31.5135 44.3757 33.2646 42.5079 35.288C41.613 36.2219 41.1655 36.7862 41.1655 36.9807C41.1655 37.0585 41.2433 37.2531 41.3989 37.5644C41.9826 38.5761 43.4029 39.3738 45.6599 39.9575C47.9557 40.5412 51.6524 41.0665 56.7499 41.5335C62.7425 42.1172 66.6532 42.5841 68.4821 42.9343C69.5327 43.1289 70.6806 43.518 71.9258 44.1017C73.2099 44.6465 73.9882 45.1134 74.2606 45.5026C74.533 45.9306 74.6691 46.4365 74.6691 47.0202C74.6691 48.5767 74.1244 50.3861 73.0348 52.4484C72.2566 53.966 70.525 55.2307 67.84 56.2424C65.2718 57.1763 62.1588 57.974 58.501 58.6355C54.8432 59.2581 51.7302 59.5694 49.162 59.5694C48.5394 59.5694 47.839 59.5305 47.0607 59.4527C45.9322 59.336 44.9983 58.9858 44.259 58.4021C43.5586 57.8184 42.936 56.9818 42.3912 55.8922C41.8464 54.8027 41.574 53.8688 41.574 53.0905C41.574 52.7403 41.6324 52.4874 41.7492 52.3317C42.2161 51.6313 44.7649 51.2616 49.3955 51.2227C52.6252 51.1449 55.1156 50.9698 56.8667 50.6974C58.2675 50.4639 58.9679 50.2888 58.9679 50.1721C58.9679 50.0553 57.3142 49.8219 54.0066 49.4716C47.3136 48.849 42.722 47.7984 40.2316 46.3197C38.8696 45.5026 37.6244 44.3546 36.496 42.876C35.4064 41.3973 34.6671 39.8602 34.2779 38.2648C34.1223 37.6422 34.0445 37.1364 34.0445 36.7472C34.0445 36.3192 34.1223 35.7939 34.2779 35.1713C34.9784 32.2528 37.0018 29.5095 40.3483 26.9413C44.3952 23.8283 48.948 21.7854 54.0066 20.8126Z" fill="white"/>
<path d="M86.3955 26.7969C87.4462 26.5635 88.166 26.4467 88.5552 26.4467C88.9054 26.4467 89.1778 26.5635 89.3723 26.7969C89.6058 27.0304 89.8782 27.1471 90.1895 27.1471C90.5397 27.1471 90.8121 27.3806 91.0067 27.8476C91.2012 28.3145 91.5125 29.5014 91.9406 31.4081C94.1975 41.3308 96.2988 49.3078 98.2444 55.3393C98.8281 57.1292 99.1199 58.355 99.1199 59.0165C99.1199 59.0943 99.1005 59.2111 99.0616 59.3667C99.0616 59.4834 99.0616 59.5807 99.0616 59.6586C98.9837 60.5925 98.867 61.1567 98.7113 61.3513C98.5557 61.7404 98.2444 62.4019 97.7774 63.3358C97.2716 64.3864 96.8046 64.9117 96.3766 64.9117C96.1042 64.9117 95.6956 64.7366 95.1508 64.3864C94.5672 63.9973 93.8862 63.1218 93.1079 61.7598C92.3686 60.3979 91.746 58.8803 91.2401 57.2071C90.4619 54.8723 89.1972 50.339 87.4462 43.6071L87.2127 42.7316L86.6874 43.6071C86.1815 44.4243 85.3254 45.3582 84.1191 46.4088C82.9129 47.4206 81.7066 48.2377 80.5003 48.8603L78.1655 50.0861L78.2239 51.3118C78.2239 51.9733 78.4963 53.4326 79.0411 55.6895C79.508 57.674 79.7415 59.1332 79.7415 60.0671C79.7415 61.001 79.4691 62.0711 78.9243 63.2774C78.3795 64.5226 77.9515 65.1647 77.6402 65.2036H77.4067C76.4728 65.2036 75.5 64.2697 74.4883 62.4019C73.71 60.8454 72.9707 58.7052 72.2703 55.9813C71.5699 53.2574 71.2196 51.1562 71.2196 49.6775C71.2196 48.7825 70.9278 47.0898 70.3441 44.5994C68.165 35.2604 67.0755 30.2601 67.0755 29.5986C67.0755 29.1317 67.4062 28.8982 68.0677 28.8982C68.5736 28.8982 68.9627 29.0539 69.2351 29.3652C69.7799 29.9878 71.064 33.3537 73.0874 39.463L74.2548 43.0818L75.8308 42.1479C78.6325 40.5914 80.5781 39.0544 81.6677 37.5368C82.7572 35.9803 83.4771 33.6844 83.8273 30.6493C84.0219 28.7815 84.2359 27.7308 84.4694 27.4974C84.7417 27.225 85.3838 26.9915 86.3955 26.7969Z" fill="white"/>
<path d="M109.757 23.6834C109.757 23.5667 109.446 23.5083 108.823 23.5083C107.617 23.5083 106.605 23.6445 105.788 23.9169C104.309 24.3838 102.772 25.1815 101.177 26.31C99.5816 27.3996 98.3169 28.5669 97.383 29.8121C96.488 31.0962 96.0405 32.0496 96.0405 32.6722C96.0405 32.8668 96.0794 32.9835 96.1573 33.0224C96.1962 33.0613 96.2351 33.0808 96.274 33.0808C96.4686 33.0808 97.0717 32.9251 98.0834 32.6138C100.263 31.8745 102.344 30.8239 104.329 29.4619C106.352 28.1 107.812 26.738 108.707 25.3761C109.407 24.4033 109.757 23.8391 109.757 23.6834ZM106.022 16.7959C106.605 16.6792 107.208 16.6208 107.831 16.6208C109.349 16.6208 110.73 16.9126 111.975 17.4963C113.259 18.0411 114.076 18.761 114.427 19.656C114.582 20.0062 114.66 20.5315 114.66 21.2319C114.66 22.983 114.213 24.8702 113.318 26.8937C113.084 27.3606 112.423 28.1389 111.333 29.2284C108.454 32.108 104.29 33.9563 98.8422 34.7735L96.6826 35.1237L97.4998 36.1743C98.0056 36.8748 98.5698 37.3806 99.1925 37.6919C99.9707 38.12 101.138 38.334 102.695 38.334C103.356 38.334 103.959 38.2756 104.504 38.1589C106.8 37.5752 109.232 36.33 111.8 34.4233C113.162 33.4115 114.427 32.75 115.594 32.4387C116.256 32.2442 116.8 32.1469 117.228 32.1469C117.579 32.1469 117.948 32.2442 118.337 32.4387C118.999 32.75 119.369 33.0224 119.446 33.2559C119.563 33.6061 119.622 33.9758 119.622 34.3649C119.622 35.5712 119.155 37.0304 118.221 38.7426C117.793 39.5597 117.345 40.2018 116.878 40.6687C116.45 41.0968 115.652 41.6999 114.485 42.4782C110.477 45.1242 106.352 46.4472 102.111 46.4472C101.021 46.4472 100.01 46.3305 99.0757 46.097C95.9238 45.2799 93.375 43.1202 91.4294 39.6181C90.0675 37.1277 89.3865 34.8318 89.3865 32.7306C89.3865 29.6954 90.515 26.7964 92.7719 24.0336C95.846 20.2591 100.263 17.8465 106.022 16.7959Z" fill="white"/>
<path d="M115.284 17.3223H116.165V19.5308H116.722V17.3223H117.604V16.8926H115.284V17.3223Z" fill="white"/>
<path d="M120.147 16.8926L119.442 18.8695L118.709 16.8926H117.842V19.5308H118.399V17.5869L119.146 19.5308H119.703L120.443 17.5869V19.5308H121V16.8926H120.147Z" fill="white"/>
</svg>
